<?xml version="1.0" encoding="UTF-8"?>
<svg width="600px" height="190px" viewBox="0 0 600 190" version="1.1" xmlns="http://www.w3.org/2000/svg" xmlns:xlink="http://www.w3.org/1999/xlink">
    <!-- Generator: Sketch 40.3 (33839) - http://www.bohemiancoding.com/sketch -->
    <title>unblank_logo</title>
    <desc>Created with Sketch.</desc>
    <defs></defs>
    <g id="Logo" stroke="none" stroke-width="1" fill="none" fill-rule="evenodd">
        <g id="unblank_logo" fill="#3B3B3B">
            <path d="M59.0778238,143.486648 C60.4855447,143.877681 61.3849085,144.42512 61.775942,145.12898 C62.1669756,145.832841 62.2842839,146.614896 62.1278705,147.47517 C61.9714571,148.335444 61.5999807,149.215256 61.0134304,150.114634 C60.42688,151.014011 59.8989926,151.815618 59.4297523,152.519478 C58.6476851,152.363065 57.9633866,152.519476 57.3768362,152.988716 C56.7902858,153.457956 56.2623984,154.005395 55.7931581,154.631049 C53.60337,154.318222 51.4527176,154.279119 49.3411362,154.513739 C47.2295549,154.74836 45.2744163,154.982976 43.4756618,155.217596 C43.1628349,155.217596 43.0259752,155.393559 43.0650786,155.745489 C43.1041819,156.097419 43.006425,156.312485 42.7718049,156.390691 C40.4256033,155.608624 38.0403343,155.315353 35.615926,155.51087 C33.1915178,155.706387 30.7280432,156.077863 28.2254282,156.62531 C25.7228133,157.172757 23.1420304,157.77885 20.483002,158.443607 C17.8239736,159.108364 15.1649851,159.479841 12.5059567,159.558047 C11.4892694,158.854187 10.6681112,157.974375 10.0424575,156.918584 C9.41680375,155.862793 8.88891633,154.728813 8.45877938,153.516609 C8.02864244,152.304405 7.67671749,151.053116 7.40299398,149.762705 C7.12927047,148.472294 6.83599969,147.240557 6.52317282,146.067456 C6.52317282,145.207182 6.69913529,144.522884 7.05106552,144.01454 C7.40299574,143.506197 7.77447208,143.056515 8.16550566,142.665481 C9.2603997,138.129492 10.6094453,133.574019 12.212683,128.998926 C13.8159207,124.423833 15.1649664,119.946565 16.2598604,115.566989 C17.2765477,111.73486 18.2736684,108.156956 19.2512524,104.833171 C20.2288363,101.509386 21.1477515,98.3029582 22.0080253,95.2137929 C22.8682992,92.1246276 23.7285602,89.05506 24.5888341,86.004998 C25.449108,82.9549361 26.2702662,79.7876115 27.0523334,76.5029294 C27.7561938,73.8439011 28.4404923,71.3022209 29.1052494,68.8778127 C29.7700065,66.4534044 30.3956509,64.0290326 30.9822012,61.6046244 C31.5687516,59.1802161 32.1552932,56.6580873 32.7418436,54.0381623 C33.3283939,51.4182373 33.8953841,48.5050808 34.4428311,45.2986054 C34.2864177,44.2819181 34.2277636,43.519414 34.2668669,43.0110704 C34.3059703,42.5027267 34.2864189,41.9748393 34.2082122,41.4273923 C33.973592,40.0978781 33.5434615,39.1203088 32.9178078,38.4946551 C33.5434615,38.3382416 33.9931434,37.8299056 34.2668669,36.9696317 C34.5405904,36.1093578 34.5601418,35.4837135 34.3255217,35.0926799 C35.5768291,34.7016463 36.9258748,34.4474783 38.372699,34.3301682 C39.8195233,34.2128581 41.2467745,34.0955498 42.6544954,33.9782397 C44.0622163,33.8609297 45.3917105,33.7045186 46.643018,33.5090018 C47.8943255,33.313485 48.9892031,32.9420087 49.9276837,32.3945616 C53.8380195,32.2381482 57.9047078,32.0621857 62.1278705,31.8666689 C66.3510332,31.6711522 70.2613104,31.4951897 73.8588194,31.3387762 C75.1883336,31.7298098 76.7524444,31.9448751 78.5511989,31.9839784 C80.3499534,32.0230818 82.1095782,32.1599415 83.8301259,32.3945616 C85.5506737,32.6291818 87.1147846,33.1179664 88.5225055,33.8609303 C89.9302264,34.6038941 90.9077957,35.9138369 91.4552427,37.7907981 C92.6283435,37.9472116 93.469053,38.2404824 93.9773967,38.6706193 C94.4857404,39.1007562 94.8376653,39.648195 95.0331821,40.3129521 C95.2286989,40.9777092 95.2873531,41.6815591 95.2091463,42.4245229 C95.1309396,43.1674867 95.0918369,43.9299908 95.0918369,44.712058 C93.7623227,45.7287453 92.1004549,46.5108007 90.1061836,47.0582477 C88.1119123,47.6056948 85.9417085,48.0358253 83.595507,48.3486521 C81.2493054,48.661479 78.7858308,48.8960956 76.2050092,49.0525091 C73.6241875,49.2089225 71.1411615,49.3066794 68.7558566,49.3457828 C66.3705518,49.3848861 64.1416938,49.4435403 62.0692158,49.521747 C59.9967378,49.5999537 58.2566644,49.717262 56.8489435,49.8736755 C55.7540495,50.0300889 54.717826,50.1669486 53.7402421,50.2842587 C52.7626581,50.4015688 51.843743,50.5384285 50.9834691,50.6948419 C50.2014019,54.2141442 49.3411409,57.9484589 48.4026603,61.8978981 C47.4641797,65.8473373 46.5061618,69.7967172 45.5285778,73.7461564 C44.5509939,77.6955956 43.592976,81.5472187 42.6544954,85.3011411 C41.7160148,89.0550635 40.8557538,92.476556 40.0736866,95.5657214 C39.2916194,98.6548867 38.6659751,101.313875 38.1967348,103.542767 C37.7274945,105.771658 37.4537751,107.316218 37.3755684,108.176491 C36.2024676,111.852207 35.2053469,114.99998 34.3841764,117.619905 C33.5630059,120.23983 32.8200532,122.703305 32.1552961,125.010403 C31.490539,127.317501 30.8257919,129.605013 30.1610348,131.873008 C29.4962777,134.141003 28.6555681,136.799991 27.6388808,139.850053 C28.968395,139.615433 30.845328,139.380817 33.2697363,139.146196 C35.3031109,138.989783 37.9816508,138.833372 41.3054362,138.676958 C44.6292217,138.520545 48.8718725,138.44234 54.0335158,138.44234 C54.1899292,139.224407 54.5418542,139.791397 55.0893012,140.143327 C55.6367482,140.495257 56.2037384,140.788528 56.7902888,141.023148 C57.3768391,141.257768 57.9047266,141.531488 58.3739669,141.844315 C58.8432072,142.157142 59.0778238,142.70458 59.0778238,143.486648 L59.0778238,143.486648 Z M125.944232,72.9836448 C126.100646,74.7041925 126.374365,76.1900979 126.765399,77.4414053 C127.156432,78.6927128 127.586563,79.9048987 128.055803,81.0779995 C128.446837,82.1728935 128.818313,83.2482198 129.170243,84.3040104 C129.522174,85.3598011 129.776342,86.6306412 129.932755,88.1165688 C129.307101,90.1499435 128.857419,92.0268765 128.583696,93.7474243 C128.309972,95.4679721 128.016702,97.2666996 127.703875,99.1436608 C126.452567,101.880896 125.240381,104.305268 124.067281,106.416849 C122.89418,108.52843 121.955713,110.366261 121.251853,111.930395 C120.860819,112.321429 120.528446,112.771111 120.254722,113.279454 C119.980999,113.787798 119.687728,114.315685 119.374901,114.863132 C119.218488,115.097752 119.022974,115.449677 118.788354,115.918918 C118.553733,116.388158 118.35822,116.70098 118.201806,116.857394 L115.855616,116.036227 L115.386378,118.968964 L113.744046,119.438202 L112.570951,120.845916 C111.085023,123.426738 109.520912,125.596942 107.878571,127.356593 C106.23623,129.116244 104.378848,130.680355 102.30637,132.048972 C100.233892,133.41759 97.8877261,134.68843 95.2678011,135.861531 C92.6478761,137.034632 89.6956168,138.325023 86.4109347,139.732744 C85.0814205,139.57633 83.9278887,139.478574 82.9503048,139.43947 C81.9727208,139.400367 81.0538057,139.341713 80.1935318,139.263506 C78.7076042,139.263506 76.8697739,139.146198 74.6799858,138.911577 C74.4453657,138.285924 74.0934407,137.855793 73.6242004,137.621173 C73.1549601,137.386553 72.7248296,137.269245 72.333796,137.269245 C71.0042818,136.643591 70.0071612,135.724676 69.3424041,134.512472 C68.677647,133.300268 68.0324512,131.990325 67.4067975,130.582604 C67.0157639,129.72233 66.6247362,128.920723 66.2337026,128.177759 C65.842669,127.434795 65.4125385,126.672291 64.9432982,125.890224 L66.9375595,125.303677 L64.3567508,122.488249 C64.2003374,122.253629 64.0048235,122.038564 63.7702033,121.843047 C63.5355832,121.64753 63.3400693,121.432465 63.1836559,121.197845 L63.0663464,119.320893 C62.8317263,113.924629 62.7339693,108.978129 62.7730727,104.481243 C62.812176,99.9843563 63.418269,95.9763222 64.5913698,92.4570199 L64.5913698,91.1666155 C64.8259899,89.4460678 65.0606065,88.0188166 65.2952267,86.8848192 C65.5298469,85.7508218 65.7253607,84.6754956 65.8817741,83.6588082 C66.1163943,81.9382605 66.4683192,80.3350468 66.9375595,78.8491192 C68.0324536,78.6144991 68.8536118,78.1648172 69.4010588,77.5000601 C69.9485058,76.835303 70.4177391,76.22921 70.8087727,75.681763 C71.9036667,75.6035563 72.6466194,75.7599674 73.037653,76.151001 C73.4286865,76.5420345 73.8197143,77.1676789 74.2107478,78.0279528 C74.6017814,78.7318132 75.0905661,79.5138687 75.6771165,80.3741426 C76.2636668,81.2344164 77.1434792,81.8991636 78.31658,82.3684039 C78.4729934,82.9940576 78.6880586,83.6392533 78.9617821,84.3040104 C79.2355057,84.9687675 79.5287764,85.6921688 79.8416033,86.474236 C80.467257,87.8037502 81.0342472,89.1918986 81.5425909,90.6387228 C82.0509346,92.0855471 82.3442053,93.4736955 82.4224121,94.8032097 C81.6403449,96.2891373 81.0342519,98.0096593 80.604115,99.9648272 C80.173978,101.919995 79.9002586,103.894685 79.7829486,105.888956 C79.6656385,107.883228 79.7047413,109.799263 79.9002581,111.637121 C80.0957748,113.474979 80.4281484,115.019539 80.8973887,116.270846 L81.6012456,117.795869 L83.595507,117.561251 C85.9417085,116.935597 88.0728095,116.251298 89.9888741,115.508334 C91.9049387,114.765371 93.6841148,113.885558 95.3264558,112.868871 C96.9687969,111.852184 98.5329078,110.659549 100.018835,109.290932 C101.504763,107.922314 103.068874,106.338652 104.711215,104.539897 C106.353556,102.741143 107.780807,100.688247 108.993011,98.3811491 C110.205215,96.0740509 111.221887,93.6692305 112.043058,91.1666155 C112.864229,88.6640006 113.489873,86.1809746 113.92001,83.717463 C114.350147,81.2539514 114.643418,78.9273365 114.799831,76.7375484 C116.129345,76.2683081 116.794092,75.3298416 116.794092,73.9221207 L116.559473,72.6317163 C116.246646,72.162476 116.246646,71.6150372 116.559473,70.9893835 C117.028714,69.5034558 118.123591,68.3694755 119.844139,67.5874083 C121.095446,68.3694755 122.209875,69.2297364 123.187459,70.168217 C124.165043,71.1066976 125.083959,72.0451642 125.944232,72.9836448 L125.944232,72.9836448 Z M144.274501,118.382417 C143.570641,118.53883 143.062305,118.949409 142.749478,119.614167 C142.436651,120.278924 142.14338,120.963222 141.869657,121.667083 C141.595933,122.370943 141.322214,123.016139 141.04849,123.602689 C140.774767,124.18924 140.364188,124.48251 139.816741,124.48251 C139.738534,125.108164 139.523469,125.655603 139.171539,126.124843 C138.819608,126.594083 138.487235,127.082868 138.174408,127.591212 C137.861581,128.099555 137.626965,128.646994 137.470551,129.233545 C137.314138,129.820095 137.392343,130.504394 137.70517,131.286461 C137.079516,131.755701 136.688489,132.420448 136.532075,133.280722 C136.375662,134.140996 136.199699,134.962154 136.004182,135.744221 C135.808666,136.526288 135.476292,137.191036 135.007052,137.738483 C134.537812,138.28593 133.677551,138.520546 132.426243,138.44234 C132.191623,138.755166 132.15252,138.95068 132.308934,139.028887 C132.465347,139.107094 132.582655,139.380813 132.660862,139.850053 C131.800588,139.69364 131.155392,139.752294 130.725255,140.026018 C130.295119,140.299741 129.767231,140.475704 129.141577,140.55391 C127.65565,140.08467 126.423912,139.263512 125.446328,138.090411 C124.468745,136.91731 123.608484,135.607367 122.86552,134.160543 C122.122556,132.713719 121.457809,131.247365 120.871258,129.761437 C120.284708,128.27551 119.717718,126.985118 119.170271,125.890224 C119.404891,125.02995 119.443994,124.189241 119.28758,123.36807 C119.131167,122.5469 118.857447,121.862601 118.466414,121.315154 C122.298543,113.181656 126.48254,104.50084 131.018529,95.2724476 C135.554519,86.044055 139.855824,76.9331092 143.922573,67.9393367 C145.721327,68.6431972 147.500504,69.444804 149.260155,70.3441813 C151.019806,71.2435585 152.623019,72.279782 154.069844,73.4528827 C155.516668,74.6259835 156.748405,75.9750291 157.765093,77.5000601 C158.78178,79.0250911 159.446527,80.7260616 159.759354,82.6030228 C159.602941,83.0722631 159.426978,83.2482256 159.231461,83.1309155 C159.035944,83.0136055 158.859982,83.0722596 158.703569,83.3068798 C159.016395,83.6979134 159.192358,83.9716328 159.231461,84.1280462 C159.270565,84.2844596 159.270565,84.4408707 159.231461,84.5972842 C159.192358,84.7536976 159.172807,84.9687628 159.172807,85.2424863 C159.172807,85.5162099 159.290115,85.8876862 159.524735,86.3569265 C159.211908,86.2787198 158.996843,86.3178225 158.879533,86.474236 C158.762223,86.6306494 158.508055,86.6306494 158.117021,86.474236 C158.429848,87.3345099 158.527605,88.0383598 158.410295,88.5858068 C158.292985,89.1332538 158.117022,89.6220384 157.882402,90.0521754 C157.647782,90.4823123 157.452268,90.9515456 157.295855,91.4598893 C157.139441,91.9682329 157.178544,92.6134286 157.413164,93.3954958 C157.178544,93.3954958 157.002582,93.45415 156.885271,93.57146 C156.767961,93.6887701 156.670204,93.8060784 156.591998,93.9233885 C156.513791,94.0406986 156.416034,94.1580069 156.298724,94.275317 C156.181414,94.3926271 156.005451,94.4121784 155.770831,94.3339717 C156.005451,96.0545195 156.083657,97.7750415 156.00545,99.4955892 C155.927244,101.216137 155.868589,102.95621 155.829486,104.715861 C155.790383,106.475513 155.809934,108.313343 155.888141,110.229407 C155.966348,112.145472 156.240067,114.120162 156.709307,116.153537 C159.524749,114.511196 161.773158,112.399646 163.454603,109.818824 C165.136047,107.238003 166.504644,104.344397 167.560435,101.137922 C168.616226,97.9314467 169.417832,94.4904028 169.965279,90.8146871 C170.512726,87.1389714 171.099268,83.3851053 171.724922,79.5529761 C172.428782,78.8491157 172.976221,77.9888547 173.367255,76.9721674 C173.758288,75.9554801 174.110213,74.8801538 174.42304,73.7461564 C174.735867,72.612159 175.048689,71.4781787 175.361516,70.3441813 C175.674343,69.2101839 176.065371,68.1739604 176.534611,67.2354798 C177.707712,67.3918932 178.704832,67.7633696 179.526003,68.34992 C180.347173,68.9364703 181.109677,69.5621147 181.813538,70.2268718 C182.517398,70.8916289 183.260351,71.5172732 184.042418,72.1038236 C184.824485,72.690374 185.802055,73.0618503 186.975155,73.2182637 C187.913636,74.5477779 188.773897,75.8381694 189.555964,77.0894769 C190.338031,78.3407843 190.846367,79.6702786 191.080987,81.0779995 C190.689954,81.7036532 190.396683,82.4075031 190.201166,83.1895703 C190.005649,83.9716375 189.790584,84.7536929 189.555964,85.5357601 C189.321344,86.3178272 189.008522,87.0412285 188.617488,87.7059856 C188.226455,88.3707427 187.679016,88.9377329 186.975155,89.4069732 C186.740535,91.4403478 186.447264,93.2977295 186.095334,94.9791739 C185.743404,96.6606183 185.391479,98.3224861 185.039549,99.9648272 C184.687619,101.607168 184.394348,103.308139 184.159728,105.06779 C183.925107,106.827441 183.846902,108.763028 183.925109,110.87461 C183.299455,112.673364 182.634708,114.5894 181.930847,116.622775 C181.226987,118.656149 180.679548,120.49398 180.288514,122.136321 C179.037207,123.153008 178.059638,124.365194 177.355777,125.772915 C176.651917,127.180636 175.908964,128.588335 175.126897,129.996056 C174.81407,130.308883 174.618556,130.387089 174.54035,130.230675 C174.462143,130.074262 174.188423,129.956954 173.719183,129.878747 C173.79739,130.191574 173.79739,130.42619 173.719183,130.582604 C173.640976,130.739017 173.543219,130.875877 173.425909,130.993187 C173.308599,131.110497 173.230394,131.28646 173.19129,131.52108 C173.152187,131.7557 173.210841,132.068522 173.367255,132.459556 C172.272361,132.928796 171.294791,133.593543 170.434517,134.453817 C169.574244,135.314091 168.655328,136.096146 167.677744,136.800007 C166.70016,137.503867 165.527077,137.9731 164.15846,138.207721 C162.789842,138.442341 161.010666,138.168621 158.820878,137.386554 C155.614403,135.040353 152.779452,132.342261 150.31594,129.292199 C147.852429,126.242137 145.838636,122.60558 144.274501,118.382417 L144.274501,118.382417 Z M259.207812,120.611297 C259.677052,120.845917 259.950771,121.236945 260.028978,121.784392 C260.107185,122.331839 260.107185,122.76197 260.028978,123.074796 C258.621257,124.873551 257.643688,126.12484 257.096241,126.8287 C256.548794,127.532561 256.157766,128.060448 255.923146,128.412378 C255.688526,128.764308 255.434358,129.057579 255.160634,129.292199 C254.886911,129.52682 254.280818,130.035156 253.342337,130.817223 C249.823035,132.928804 246.206029,134.805737 242.49121,136.448078 C238.77639,138.090419 234.885665,139.2244 230.818915,139.850053 C230.193262,140.710327 229.000627,141.31642 227.240976,141.66835 C225.481325,142.020281 223.85856,142.352654 222.372632,142.665481 C222.059805,142.509068 221.883843,142.294002 221.844739,142.020279 C221.805636,141.746555 221.629674,141.53149 221.316847,141.375077 C221.23864,142.157144 220.886715,142.567723 220.261061,142.606826 C219.635408,142.64593 218.872904,142.489519 217.973526,142.137588 C217.074149,141.785658 216.135683,141.316425 215.158099,140.729875 C214.180515,140.143324 213.339805,139.615437 212.635945,139.146196 C212.244911,139.77185 211.834332,140.397495 211.404195,141.023148 C210.974058,141.648802 210.446171,142.078932 209.820517,142.313553 C208.960243,142.157139 208.315047,142.039831 207.88491,141.961624 C207.454773,141.883417 207.044194,142.039829 206.653161,142.430862 C206.18392,142.196242 205.812444,141.922523 205.538721,141.609696 C205.264997,141.296869 204.991278,141.003598 204.717554,140.729875 C204.443831,140.456151 204.131008,140.201983 203.779078,139.967363 C203.427148,139.732743 202.938363,139.537229 202.31271,139.380815 C202.469123,139.067989 202.390917,138.579204 202.078091,137.914447 C201.765264,137.24969 201.29603,136.839111 200.670377,136.682697 C200.983204,136.13525 200.846344,135.450952 200.259794,134.629781 C199.673243,133.808611 199.223561,132.889695 198.910734,131.873008 C199.067148,131.012734 199.184456,130.074268 199.262663,129.05758 C199.34087,128.040893 199.810103,127.454352 200.670377,127.297938 C200.59217,126.750491 200.474862,126.281258 200.318448,125.890224 C200.162035,125.499191 200.005624,125.108163 199.84921,124.717129 C200.396657,124.247889 200.787685,123.680899 201.022305,123.016142 C201.256925,122.351385 201.452439,121.667086 201.608853,120.963226 C201.765266,120.259365 201.96078,119.555515 202.1954,118.851655 C202.43002,118.147794 202.860151,117.561253 203.485804,117.092013 C204.189665,114.745811 204.737104,113.005738 205.128137,111.87174 C205.519171,110.737743 205.812442,109.623314 206.007958,108.52842 C206.203475,107.433526 206.438092,106.260443 206.711815,105.009135 C206.985539,103.757828 207.474324,102.193717 208.178184,100.316756 C208.099977,99.1436549 208.217286,98.1074314 208.530113,97.2080542 C208.842939,96.308677 209.175313,95.4093132 209.527243,94.509936 C209.879173,93.6105587 210.172444,92.6720922 210.407064,91.6945082 C210.641684,90.7169243 210.602582,89.5633925 210.289755,88.2338783 C209.194861,88.312085 208.412805,88.6835614 207.943565,89.3483185 C207.474325,90.0130755 207.161503,90.8928879 207.005089,91.9877819 C206.379435,92.6134357 205.616931,92.9067065 204.717554,92.8676031 C203.818177,92.8284998 203.01657,92.9262567 202.31271,93.1608768 C199.575475,92.0659828 197.307514,90.5018719 195.508759,88.4684973 C193.710005,86.4351226 192.263202,84.0498536 191.168308,81.3126185 C191.872169,79.513864 192.927943,78.0084073 194.335664,76.7962032 C195.743385,75.583999 197.346599,74.567327 199.145353,73.7461564 C200.944108,72.9249859 202.860144,72.2602388 204.893518,71.7518951 C206.926893,71.2435515 208.882032,70.7547668 210.758993,70.2855265 C213.809055,69.7380795 216.859071,69.1124352 219.909133,68.4085747 C222.959195,67.7047143 226.243828,67.4700976 229.76313,67.7047178 C230.23237,67.4700976 230.79936,67.3332379 231.464118,67.2941346 C232.128875,67.2550312 232.813173,67.2354798 233.517034,67.2354798 C234.220894,67.2354798 234.905193,67.2159284 235.56995,67.1768251 C236.234707,67.1377217 236.801697,67.000862 237.270937,66.7662419 C237.661971,67.2354822 238.228961,67.528753 238.971925,67.646063 C239.714889,67.7633731 240.516495,68.1348494 241.376769,68.7605032 C242.31525,68.0566427 243.116857,67.9002316 243.781614,68.2912652 C244.446371,68.6822988 245.052464,69.1124293 245.599911,69.5816696 C246.147358,70.0509099 246.675245,70.4810404 247.183589,70.872074 C247.691933,71.2631076 248.21982,71.4586214 248.767267,71.4586214 C249.314714,72.1624819 249.999013,72.827229 250.820183,73.4528827 C251.641354,74.0785365 252.423409,74.7237322 253.166373,75.3884893 C253.909337,76.0532464 254.534981,76.7766477 255.043325,77.5587148 C255.551668,78.340782 255.805836,79.2401458 255.805836,80.2568331 C255.72763,80.6478667 255.844938,80.8824833 256.157765,80.96069 C256.470592,81.0388967 256.705208,81.1953078 256.861622,81.429928 C256.939829,83.8543362 256.568352,85.9463345 255.747182,87.7059856 C254.926011,89.4656367 253.909339,91.0884018 252.697135,92.5743294 C251.484931,94.060257 250.155437,95.4679568 248.708612,96.797471 C247.261788,98.1269852 245.951845,99.534685 244.778745,101.020613 C245.560812,102.0373 246.460175,102.936664 247.476863,103.718731 C248.49355,104.500798 249.529774,105.282853 250.585564,106.064921 C251.641355,106.846988 252.638476,107.668146 253.576956,108.52842 C254.515437,109.388694 255.297492,110.405366 255.923146,111.578467 C256.079559,111.73488 256.275073,111.87174 256.509693,111.98905 C256.744314,112.10636 256.97893,112.24322 257.21355,112.399633 C257.448171,113.1817 257.760993,113.983307 258.152026,114.804478 C258.54306,115.625648 258.875433,116.407703 259.149157,117.150667 C259.42288,117.893631 259.598843,118.558378 259.67705,119.144929 C259.755256,119.731479 259.598845,120.220264 259.207812,120.611297 L259.207812,120.611297 Z M238.561342,81.429928 C234.572799,81.2735145 230.603868,81.6254395 226.654429,82.4857134 C222.704989,83.3459872 219.400805,84.5581732 216.741777,86.1223075 C218.071291,87.2172015 219.420337,88.1947708 220.788954,89.0550447 C222.157572,89.9153186 223.232898,91.0884018 224.014965,92.5743294 C227.065027,91.3230219 229.763118,89.7393597 232.10932,87.8232951 C234.455521,85.9072305 236.606174,83.7761295 238.561342,81.429928 L238.561342,81.429928 Z M240.086365,118.851655 C240.320985,118.069588 240.751116,117.443943 241.376769,116.974703 C242.002423,116.505463 242.628067,116.055781 243.253721,115.625644 C243.879375,115.195507 244.426814,114.726274 244.896054,114.21793 C245.365294,113.709586 245.560808,112.986185 245.482601,112.047705 C242.979987,110.71819 240.692474,109.916584 238.619996,109.64286 C236.547518,109.369137 234.59238,109.369137 232.754522,109.64286 C230.916664,109.916584 229.157039,110.327163 227.475595,110.87461 C225.794151,111.422057 224.09318,111.813084 222.372632,112.047705 C221.512358,114.315699 220.612995,116.779174 219.674514,119.438202 C218.736033,122.097231 217.83667,124.678014 216.976396,127.180629 C219.322597,126.867802 221.47325,126.379017 223.428418,125.71426 C225.383586,125.049503 227.28007,124.326102 229.117928,123.544034 C230.955786,122.761967 232.754513,121.96036 234.514164,121.13919 C236.273815,120.318019 238.131197,119.555515 240.086365,118.851655 L240.086365,118.851655 Z M294.635277,138.44234 C292.445489,139.1462 290.06022,139.85005 287.479398,140.55391 C284.898577,141.257771 282.317794,141.609696 279.736972,141.609696 C275.826636,141.609696 272.737517,140.632126 270.469523,138.676958 C270.078489,137.816685 269.726564,137.230143 269.413737,136.917316 C269.179117,136.604489 268.964052,136.272116 268.768535,135.920186 C268.573018,135.568255 268.436159,135.079471 268.357952,134.453817 C267.419471,133.358923 266.676519,132.088083 266.129072,130.641259 C265.581624,129.194434 265.210148,127.708529 265.014631,126.183498 C264.819115,124.658467 264.780012,123.113907 264.897322,121.549773 C265.014632,119.985639 265.2688,118.499733 265.659834,117.092013 C265.816247,116.779186 265.914004,116.466364 265.953107,116.153537 C265.992211,115.84071 266.050865,115.488785 266.129072,115.097751 C266.441898,113.846444 266.774272,112.634258 267.126202,111.461157 C267.478132,110.288056 267.966917,109.271384 268.592571,108.41111 C268.279744,107.70725 268.279744,106.925194 268.592571,106.064921 C268.905398,105.204647 269.257323,104.422591 269.648356,103.718731 C270.74325,100.746876 271.662165,98.2247468 272.405129,96.1522688 C273.148093,94.0797908 273.910597,92.0268953 274.692664,89.9935206 C276.022178,86.4742184 277.273467,82.9940717 278.446568,79.5529761 C279.619669,76.1118806 280.675443,72.3971173 281.613924,68.4085747 C282.239578,68.0175411 282.708811,67.7438217 283.021638,67.5874083 C283.490878,67.4309948 283.881906,67.3136865 284.194733,67.2354798 C285.602454,67.9393403 287.24477,68.6236388 289.121731,69.2883959 C290.998693,69.953153 292.562803,70.2855265 293.814111,70.2855265 C294.439765,70.6765601 294.830792,70.9698309 294.987206,71.1653477 C295.143619,71.3608645 295.30003,71.536827 295.456444,71.6932404 C296.316718,72.7099277 297.05967,73.7461512 297.685324,74.8019418 C298.310978,75.8577325 298.506492,77.2458809 298.271871,78.9664287 C297.802631,79.6702891 297.450706,80.0222141 297.216086,80.0222141 C296.825052,81.5863484 296.414473,82.9158427 295.984336,84.0107367 C295.554199,85.1056307 295.104518,86.2005084 294.635277,87.2954024 C294.08783,88.4685032 293.579494,89.6415863 293.110254,90.8146871 C292.641014,91.9877878 292.249986,93.4345904 291.937159,95.1551381 C291.624332,95.5461717 291.409267,95.8980967 291.291957,96.2109235 C291.174647,96.5237504 291.037787,96.8756754 290.881374,97.2667089 C290.72496,97.6577425 290.548998,98.0683216 290.353481,98.4984586 C290.157964,98.9285955 289.864693,99.3000719 289.47366,99.6128987 C289.23904,101.646273 288.867563,103.28859 288.35922,104.539897 C287.850876,105.791205 287.322989,107.042493 286.775542,108.293801 C285.837061,110.561796 284.996351,112.829756 284.253388,115.097751 C283.510424,117.365746 283.060742,119.946529 282.904328,122.840178 C283.295362,122.683764 283.666838,122.605559 284.018769,122.605559 L285.015899,122.605559 C285.71976,122.605559 286.540918,122.722867 287.479398,122.957487 C289.8256,121.70618 292.386832,120.963227 295.16317,120.728607 C297.939508,120.493987 300.696254,120.337575 303.433489,120.259369 L306.718155,120.259369 C307.813049,120.259369 308.829721,120.181163 309.768201,120.02475 C310.472062,120.415783 310.921744,120.630849 311.11726,120.669952 C311.312777,120.709055 311.606048,120.728607 311.997082,120.728607 C312.544529,120.728607 313.013762,120.767709 313.404795,120.845916 C314.343276,121.70619 315.24264,122.331834 316.102914,122.722868 C316.963188,123.113902 317.862551,123.465827 318.801032,123.778653 C319.661306,124.09148 320.502015,124.423854 321.323186,124.775784 C322.144357,125.127714 322.945963,125.616499 323.72803,126.242153 L324.549197,131.286461 C325.096644,131.990321 325.331261,132.459554 325.253054,132.694175 C325.253054,133.319828 325.096643,133.789062 324.783816,134.101888 L325.018435,135.392293 C323.845334,135.626913 323.043727,135.900632 322.61359,136.213459 C322.183453,136.526286 321.772874,136.878211 321.381841,137.269245 C320.756187,137.347451 320.306505,137.386554 320.032782,137.386554 L319.27027,137.386554 C318.175376,137.386554 316.845882,137.582068 315.281747,137.973102 C313.170166,137.269241 310.980411,136.917316 308.712416,136.917316 C307.852142,136.917316 306.952778,136.956419 306.014298,137.034626 C305.075817,137.112832 304.137351,137.191038 303.19887,137.269245 C302.260389,137.425658 301.302371,137.542966 300.324787,137.621173 C299.347204,137.69938 298.350083,137.738483 297.333396,137.738483 L294.635277,138.44234 Z M389.773273,129.878747 C389.304032,131.208261 388.619734,132.557307 387.720357,133.925924 C386.820979,135.294542 385.765205,136.506728 384.553,137.562518 C383.340796,138.618309 381.991751,139.498121 380.505823,140.201982 C379.019895,140.905842 377.455785,141.29687 375.813444,141.375077 C374.796756,141.140457 374.112458,140.886289 373.760527,140.612565 C373.408597,140.338842 373.037121,140.084674 372.646087,139.850053 C372.411467,139.69364 372.196402,139.55678 372.000885,139.43947 C371.805368,139.32216 371.629406,139.224403 371.472992,139.146196 L370.065279,138.559649 L370.534517,137.034626 C370.69093,136.408972 370.651827,135.920187 370.417207,135.568257 C370.182587,135.216327 369.713354,134.727542 369.009493,134.101888 C368.774873,133.867268 368.540256,133.632652 368.305636,133.398031 C368.071016,133.163411 367.875502,132.928795 367.719089,132.694175 L365.724827,130.465294 L368.892184,129.644128 C370.847352,129.096681 372.157294,128.392831 372.822052,127.532557 C373.486809,126.672283 373.740977,125.225481 373.584563,123.192106 C372.020429,122.879279 370.710486,122.840176 369.654695,123.074796 C368.598905,123.309417 367.523578,123.583136 366.428684,123.895963 C365.020964,124.286996 363.593712,124.61937 362.146888,124.893094 C360.700064,125.166817 359.116402,125.303677 357.395854,125.303677 C356.7702,125.303677 356.183658,125.284125 355.636211,125.245022 C355.088764,125.205919 354.502223,125.147265 353.876569,125.069058 L352.703474,124.834439 C352.547061,123.974165 352.39065,123.48538 352.234236,123.36807 C352.077823,123.25076 351.921412,123.1139 351.764998,122.957487 C351.373965,122.566453 350.963386,122.038566 350.533249,121.373809 C350.103112,120.709052 350.005355,119.868342 350.239975,118.851655 C349.848941,118.147794 349.614325,117.443945 349.536118,116.740084 C349.066878,117.678565 348.714953,118.656134 348.480333,119.672821 L348.011095,120.845916 L346.838,121.080535 C346.681586,121.158742 346.564278,121.334704 346.486071,121.608428 C346.407865,121.882151 346.368762,122.097217 346.368762,122.25363 L345.782214,124.247891 C345.625801,124.404305 345.46939,124.541165 345.312976,124.658475 C345.156563,124.775785 345.000152,124.912644 344.843738,125.069058 C344.687325,125.772918 344.491811,126.476768 344.257191,127.180629 C344.022571,127.884489 343.787954,128.549236 343.553334,129.17489 C343.162301,130.191577 342.829927,131.188698 342.556203,132.166282 C342.28248,133.143866 342.184723,134.101884 342.26293,135.040364 L341.793692,136.330769 C341.402658,136.800009 340.972528,137.171485 340.503287,137.445209 C340.034047,137.718932 339.564814,137.9731 339.095574,138.207721 C338.93916,138.364134 338.724095,138.500994 338.450371,138.618304 C338.176648,138.735614 337.961583,138.833371 337.805169,138.911577 L337.453241,140.201982 L336.045527,140.436601 C335.185253,140.593014 334.57916,140.710323 334.22723,140.788529 C333.8753,140.866736 333.46472,140.905839 332.99548,140.905839 L331.822385,140.788529 C330.962111,140.084669 330.297364,139.517679 329.828124,139.087542 C329.358884,138.657405 328.811445,138.246826 328.185791,137.855792 C327.481931,136.917311 327.090903,136.213462 327.012696,135.744221 C326.934489,135.274981 326.856284,134.84485 326.778077,134.453817 C326.621664,133.984577 326.523907,133.593549 326.484803,133.280722 C326.4457,132.967895 326.347943,132.733279 326.19153,132.576865 L324.666506,131.169151 L325.956911,130.113366 L326.07422,128.119104 C327.638355,124.130562 329.300222,120.29849 331.059874,116.622775 C332.819525,112.947059 334.637804,109.193193 336.514765,105.361064 C337.140419,104.109756 337.746511,102.858468 338.333062,101.60716 C338.919612,100.355853 339.525705,99.1045639 340.151359,97.8532564 C340.073152,97.6186362 340.034049,97.3449168 340.034049,97.03209 C340.034049,96.7192631 340.112255,96.3673382 340.268668,95.9763046 C341.128942,94.6467904 341.832792,93.4541558 342.380239,92.3983652 C342.927686,91.3425745 343.475125,90.2672483 344.022572,89.1723542 C344.648226,87.84284 345.293422,86.5524486 345.958179,85.3011411 C346.622936,84.0498336 347.463645,82.7594421 348.480333,81.429928 L350.357284,80.6087615 C350.591905,80.5305548 350.865624,80.4327979 351.178451,80.3154878 C351.491278,80.1981777 351.843203,80.1395236 352.234236,80.1395236 L353.993879,80.3741426 C356.183667,79.3574552 358.099702,77.9302041 359.742044,76.0923462 C361.384385,74.2544884 363.065804,72.0451818 364.786352,69.4643601 L365.959446,67.8220273 L367.48447,68.7605032 C367.875503,68.9951233 368.422942,69.2101886 369.126803,69.4057054 C369.830663,69.6012222 370.573616,69.8162874 371.355683,70.0509075 C372.763404,70.3637344 374.092898,70.7156594 375.344206,71.1066929 C376.595513,71.4977265 377.612185,72.0842681 378.394252,72.8663353 C378.863493,74.1176427 379.137212,75.0561093 379.215419,75.681763 C379.293625,76.3074167 379.410934,76.9330611 379.567347,77.5587148 C379.801967,78.888229 380.017033,80.2177233 380.212549,81.5472374 C380.408066,82.8767516 380.544926,84.362657 380.623133,86.004998 C381.014166,87.3345122 381.34654,88.6444551 381.620263,89.9348659 C381.893987,91.2252767 382.148155,92.5352196 382.382775,93.8647338 C382.773808,95.741695 383.164836,97.5599739 383.55587,99.319625 C383.946903,101.079276 384.455239,102.741144 385.080893,104.305278 C385.706547,104.305278 386.097575,104.344381 386.253988,104.422588 C386.645022,104.266174 387.055601,104.148866 387.485738,104.070659 C387.915875,103.992453 388.404659,103.914247 388.952106,103.83604 L390.242511,103.718731 L390.711749,104.891826 C390.789955,105.282859 391.180983,105.673887 391.884843,106.064921 C392.901531,106.143127 393.644483,106.358193 394.113724,106.710123 C394.582964,107.062053 395.013095,107.433529 395.404128,107.824563 C395.716955,108.13739 396.029777,108.372006 396.342604,108.52842 L398.102246,109.232277 L397.16377,110.991919 C396.381703,112.39964 395.267274,113.748686 393.82045,115.039096 C392.373626,116.329507 390.750861,117.404834 388.952106,118.265107 C389.030313,118.734348 389.088967,119.18403 389.12807,119.614167 C389.167174,120.044304 389.264931,120.493985 389.421344,120.963226 C389.655964,122.29274 389.851478,123.661337 390.007892,125.069058 C390.164305,126.476779 390.164305,127.923581 390.007892,129.409509 L389.773273,129.878747 Z M355.87083,109.584205 C358.217032,109.427792 360.348133,109.251829 362.264198,109.056313 C364.180262,108.860796 366.311363,108.528422 368.657565,108.059182 C368.110118,105.71298 367.523576,103.269057 366.897922,100.727339 C366.272269,98.1856206 365.607522,95.6634918 364.903661,93.1608768 L364.199804,94.3339717 C362.63567,95.9763128 361.130213,97.8141431 359.683389,99.8475177 C358.236565,101.880892 357.004827,103.796928 355.98814,105.595683 C355.5189,106.299543 355.049666,107.003393 354.580426,107.707253 C354.111186,108.411114 353.681055,109.114964 353.290022,109.818824 C353.759262,109.740618 354.208944,109.701515 354.639081,109.701515 C355.069218,109.701515 355.479797,109.662412 355.87083,109.584205 L355.87083,109.584205 Z M421.564144,118.382417 C420.860284,118.53883 420.351948,118.949409 420.039121,119.614167 C419.726294,120.278924 419.433023,120.963222 419.1593,121.667083 C418.885576,122.370943 418.611857,123.016139 418.338133,123.602689 C418.06441,124.18924 417.653831,124.48251 417.106384,124.48251 C417.028177,125.108164 416.813112,125.655603 416.461181,126.124843 C416.109251,126.594083 415.776878,127.082868 415.464051,127.591212 C415.151224,128.099555 414.916607,128.646994 414.760194,129.233545 C414.60378,129.820095 414.681986,130.504394 414.994813,131.286461 C414.369159,131.755701 413.978131,132.420448 413.821718,133.280722 C413.665304,134.140996 413.489342,134.962154 413.293825,135.744221 C413.098308,136.526288 412.765935,137.191036 412.296695,137.738483 C411.827454,138.28593 410.967193,138.520546 409.715886,138.44234 C409.481266,138.755166 409.442163,138.95068 409.598576,139.028887 C409.75499,139.107094 409.872298,139.380813 409.950505,139.850053 C409.090231,139.69364 408.445035,139.752294 408.014898,140.026018 C407.584761,140.299741 407.056874,140.475704 406.43122,140.55391 C404.945292,140.08467 403.713555,139.263512 402.735971,138.090411 C401.758387,136.91731 400.898126,135.607367 400.155162,134.160543 C399.412199,132.713719 398.747452,131.247365 398.160901,129.761437 C397.574351,128.27551 397.007361,126.985118 396.459914,125.890224 C396.694534,125.02995 396.733636,124.189241 396.577223,123.36807 C396.42081,122.5469 396.14709,121.862601 395.756057,121.315154 C399.588186,113.181656 403.772182,104.50084 408.308172,95.2724476 C412.844161,86.044055 417.145466,76.9331092 421.212216,67.9393367 C423.01097,68.6431972 424.790146,69.444804 426.549797,70.3441813 C428.309449,71.2435585 429.912662,72.279782 431.359486,73.4528827 C432.806311,74.6259835 434.038048,75.9750291 435.054735,77.5000601 C436.071423,79.0250911 436.73617,80.7260616 437.048997,82.6030228 C436.892583,83.0722631 436.716621,83.2482256 436.521104,83.1309155 C436.325587,83.0136055 436.149625,83.0722596 435.993211,83.3068798 C436.306038,83.6979134 436.482001,83.9716328 436.521104,84.1280462 C436.560207,84.2844596 436.560207,84.4408707 436.521104,84.5972842 C436.482001,84.7536976 436.462449,84.9687628 436.462449,85.2424863 C436.462449,85.5162099 436.579758,85.8876862 436.814378,86.3569265 C436.501551,86.2787198 436.286486,86.3178225 436.169175,86.474236 C436.051865,86.6306494 435.797697,86.6306494 435.406664,86.474236 C435.719491,87.3345099 435.817248,88.0383598 435.699938,88.5858068 C435.582627,89.1332538 435.406665,89.6220384 435.172045,90.0521754 C434.937425,90.4823123 434.741911,90.9515456 434.585497,91.4598893 C434.429084,91.9682329 434.468187,92.6134286 434.702807,93.3954958 C434.468187,93.3954958 434.292224,93.45415 434.174914,93.57146 C434.057604,93.6887701 433.959847,93.8060784 433.88164,93.9233885 C433.803434,94.0406986 433.705677,94.1580069 433.588367,94.275317 C433.471057,94.3926271 433.295094,94.4121784 433.060474,94.3339717 C433.295094,96.0545195 433.3733,97.7750415 433.295093,99.4955892 C433.216886,101.216137 433.158232,102.95621 433.119129,104.715861 C433.080025,106.475513 433.099577,108.313343 433.177784,110.229407 C433.25599,112.145472 433.52971,114.120162 433.99895,116.153537 C436.814392,114.511196 439.062801,112.399646 440.744246,109.818824 C442.42569,107.238003 443.794287,104.344397 444.850078,101.137922 C445.905868,97.9314467 446.707475,94.4904028 447.254922,90.8146871 C447.802369,87.1389714 448.388911,83.3851053 449.014565,79.5529761 C449.718425,78.8491157 450.265864,77.9888547 450.656897,76.9721674 C451.047931,75.9554801 451.399856,74.8801538 451.712683,73.7461564 C452.02551,72.612159 452.338332,71.4781787 452.651159,70.3441813 C452.963986,69.2101839 453.355013,68.1739604 453.824254,67.2354798 C454.997354,67.3918932 455.994475,67.7633696 456.815646,68.34992 C457.636816,68.9364703 458.39932,69.5621147 459.103181,70.2268718 C459.807041,70.8916289 460.549994,71.5172732 461.332061,72.1038236 C462.114128,72.690374 463.091697,73.0618503 464.264798,73.2182637 C465.203279,74.5477779 466.06354,75.8381694 466.845607,77.0894769 C467.627674,78.3407843 468.13601,79.6702786 468.37063,81.0779995 C467.979597,81.7036532 467.686326,82.4075031 467.490809,83.1895703 C467.295292,83.9716375 467.080227,84.7536929 466.845607,85.5357601 C466.610987,86.3178272 466.298164,87.0412285 465.907131,87.7059856 C465.516097,88.3707427 464.968659,88.9377329 464.264798,89.4069732 C464.030178,91.4403478 463.736907,93.2977295 463.384977,94.9791739 C463.033047,96.6606183 462.681122,98.3224861 462.329191,99.9648272 C461.977261,101.607168 461.68399,103.308139 461.44937,105.06779 C461.21475,106.827441 461.136545,108.763028 461.214751,110.87461 C460.589098,112.673364 459.92435,114.5894 459.22049,116.622775 C458.51663,118.656149 457.969191,120.49398 457.578157,122.136321 C456.32685,123.153008 455.34928,124.365194 454.64542,125.772915 C453.94156,127.180636 453.198607,128.588335 452.41654,129.996056 C452.103713,130.308883 451.908199,130.387089 451.829992,130.230675 C451.751786,130.074262 451.478066,129.956954 451.008826,129.878747 C451.087033,130.191574 451.087033,130.42619 451.008826,130.582604 C450.930619,130.739017 450.832862,130.875877 450.715552,130.993187 C450.598242,131.110497 450.520036,131.28646 450.480933,131.52108 C450.44183,131.7557 450.500484,132.068522 450.656897,132.459556 C449.562003,132.928796 448.584434,133.593543 447.72416,134.453817 C446.863886,135.314091 445.944971,136.096146 444.967387,136.800007 C443.989803,137.503867 442.81672,137.9731 441.448102,138.207721 C440.079485,138.442341 438.300309,138.168621 436.110521,137.386554 C432.904045,135.040353 430.069094,132.342261 427.605583,129.292199 C425.142071,126.242137 423.128278,122.60558 421.564144,118.382417 L421.564144,118.382417 Z M536.058205,135.509602 C532.304283,135.666016 529.000099,135.58781 526.145553,135.274983 C523.291008,134.962156 520.49516,134.219204 517.757925,133.046103 C517.601512,132.967896 517.4451,132.772382 517.288687,132.459556 C517.132274,132.146729 516.975862,131.912112 516.819449,131.755699 C516.350209,131.521078 515.783219,131.423322 515.118461,131.462425 C514.453704,131.501528 513.886714,131.442874 513.417474,131.286461 C512.79182,130.973634 511.814251,130.367541 510.484737,129.468164 C509.155222,128.568786 507.943037,127.728077 506.848142,126.94601 C505.440422,125.851116 504.110927,124.756238 502.85962,123.661344 C501.608312,122.56645 500.513435,121.393367 499.574954,120.142059 C499.340334,119.829232 499.027512,119.65327 498.636478,119.614167 C498.245445,119.575063 497.89352,119.477306 497.580693,119.320893 C495.312698,120.728614 493.396662,122.488238 491.832528,124.59982 C490.268394,126.711401 488.782488,128.862054 487.374767,131.051842 C485.967046,133.24163 484.481141,135.314077 482.917007,137.269245 C481.352872,139.224413 479.358631,140.710318 476.934223,141.727005 C476.230362,141.727005 475.604718,141.609697 475.057271,141.375077 C474.509824,141.140457 474.001488,140.847186 473.532248,140.495256 C473.063007,140.143325 472.593774,139.810952 472.124534,139.498125 C471.655294,139.185298 471.146957,138.950681 470.59951,138.794268 C470.59951,137.855787 470.423548,136.995526 470.071618,136.213459 C469.719688,135.431392 469.367763,134.688439 469.015832,133.984579 C468.663902,133.280718 468.409734,132.59642 468.253321,131.931663 C468.096907,131.266906 468.253318,130.62171 468.722559,129.996056 C468.253318,129.526816 467.549468,129.01848 466.610988,128.471033 C467.080228,128.001793 467.295293,127.571662 467.25619,127.180629 C467.217087,126.789595 467.11933,126.398567 466.962916,126.007534 C466.806503,125.6165 466.669643,125.18637 466.552333,124.717129 C466.435023,124.247889 466.53278,123.778656 466.845607,123.309415 C467.23664,123.309415 467.705874,123.23121 468.253321,123.074796 C467.78408,122.449143 467.569015,122.077666 467.608118,121.960356 C467.647222,121.843046 467.549465,121.667084 467.314845,121.432464 C467.158431,120.963223 467.236637,120.669953 467.549464,120.552642 C467.862291,120.435332 468.175113,120.298473 468.48794,120.142059 C468.800767,116.30993 469.465514,112.751578 470.482201,109.466896 C471.498888,106.182214 472.632869,103.014889 473.884176,99.9648272 C475.135484,96.9147652 476.367221,93.8256462 477.579425,90.6973776 C478.791629,87.5691089 479.78875,84.2062705 480.570817,80.6087615 C481.431091,79.7484877 482.115389,78.7318156 482.623733,77.5587148 C483.132077,76.3856141 483.679516,75.2125309 484.266066,74.0394302 C484.852616,72.8663294 485.517363,71.7127976 486.260327,70.5788002 C487.003291,69.4448029 488.039514,68.5258877 489.369029,67.8220273 C490.463923,67.900234 491.441492,68.1935048 492.301766,68.7018484 C493.16204,69.2101921 494.217815,69.4252573 495.469122,69.3470506 C495.703742,69.7380842 495.918807,70.1291119 496.114324,70.5201455 C496.309841,70.9111791 496.564009,71.3022068 496.876836,71.6932404 L498.636478,71.3413119 C499.496752,72.0451724 500.259256,72.9249847 500.924013,73.9807754 C501.58877,75.0365661 502.038452,76.1509951 502.273072,77.3240959 C502.507693,78.4971966 502.46859,79.6116256 502.155763,80.6674163 C501.842936,81.723207 501.099983,82.5639166 499.926883,83.1895703 C500.005089,83.5806039 500.024641,83.8738747 499.985537,84.0693915 C499.946434,84.2649082 499.88778,84.4408707 499.809573,84.5972842 C499.731366,84.7536976 499.692264,84.9101087 499.692264,85.0665221 C499.692264,85.2229355 499.809572,85.4575522 500.044192,85.770379 C498.480058,86.9434798 497.306975,88.5857962 496.524907,90.6973776 C495.74284,92.8089589 495.31271,94.685892 495.234503,96.328233 C496.172984,95.3897524 497.209207,94.4708373 498.343205,93.57146 C499.477202,92.6720828 500.650285,91.7922704 501.862489,90.9319966 C503.074693,90.0717227 504.247776,89.2505645 505.381774,88.4684973 C506.515771,87.6864301 507.551995,86.9043747 508.490475,86.1223075 C511.071297,83.776106 513.554323,81.8796216 515.939628,80.4327973 C518.324933,78.985973 520.847062,77.363208 523.50609,75.5644535 C524.131744,75.4080401 524.620528,75.3884887 524.972459,75.5057988 C525.324389,75.6231089 525.695865,75.7599686 526.086899,75.916382 C526.086899,75.4471417 525.950039,75.1734223 525.676315,75.0952156 C525.402592,75.0170088 525.304835,74.7041867 525.383042,74.1567397 C526.556142,73.8439128 527.572815,73.4724365 528.433088,73.0422995 C529.293362,72.6121626 530.231829,72.2015835 531.248516,71.8105499 C531.952377,72.5144103 532.617124,73.2378116 533.242777,73.9807754 C533.868431,74.7237392 534.728692,75.1734211 535.823586,75.3298345 C536.21462,76.1901084 536.683853,76.8353042 537.2313,77.2654411 C537.778747,77.695578 538.326186,78.1061572 538.873633,78.4971907 C539.42108,78.8882243 539.909865,79.3574576 540.340002,79.9049046 C540.770138,80.4523516 541.024307,81.3126126 541.102513,82.4857134 C540.789686,83.0331604 540.457313,83.619702 540.105383,84.2453557 C539.753452,84.8710094 539.421079,85.6139621 539.108252,86.474236 C537.544118,87.8819569 535.960455,89.1332456 534.357218,90.2281396 C532.75398,91.3230337 531.131215,92.3788085 529.488874,93.3954958 C527.846533,94.4121831 526.165114,95.4288552 524.444566,96.4455425 C522.724018,97.4622298 520.964393,98.6744158 519.165639,100.082137 C518.774605,100.629584 518.285821,101.118368 517.69927,101.548505 C517.11272,101.978642 516.506627,102.408773 515.880973,102.83891 C515.255319,103.269047 514.668778,103.718728 514.121331,104.187969 C513.573884,104.657209 513.143753,105.204648 512.830926,105.830302 C512.596306,105.908508 512.36169,105.947611 512.127069,105.947611 C511.892449,105.947611 511.657833,105.986714 511.423213,106.064921 C511.188592,106.612368 510.817116,107.042498 510.308772,107.355325 C509.800429,107.668152 509.468055,108.098282 509.311642,108.645729 C510.484743,111.148344 512.009751,113.06438 513.886712,114.393894 C515.763673,115.723408 517.875223,116.681426 520.221424,117.267977 C522.567626,117.854527 525.109306,118.167349 527.846541,118.206453 C530.583776,118.245556 533.438278,118.265107 536.410134,118.265107 C536.722961,118.186901 536.85982,118.010938 536.820717,117.737215 C536.781614,117.463491 536.957576,117.365734 537.34861,117.443941 C539.225571,118.069595 540.672373,118.949407 541.689061,120.083405 C542.705748,121.217402 543.917934,122.331831 545.325655,123.426725 C545.169241,126.39858 544.269878,128.862055 542.627537,130.817223 C540.985196,132.772391 538.79544,134.336502 536.058205,135.509602 L536.058205,135.509602 Z M589.199404,36.9696317 C590.216091,37.1260451 590.959044,37.4193159 591.428284,37.8494529 C591.897524,38.2795898 592.210346,38.8270286 592.36676,39.4917857 C592.523173,40.1565428 592.562276,40.8603927 592.484069,41.6033565 C592.405863,42.3463203 592.36676,43.1088244 592.36676,43.8908915 C591.584693,47.0973669 590.724432,50.7925789 589.785951,54.9766382 C588.84747,59.1606976 587.811247,63.5793108 586.67725,68.2326105 C585.543252,72.8859101 584.350618,77.5782428 583.09931,82.3097491 C581.848003,87.0412555 580.694471,91.4403173 579.63868,95.5070666 C578.58289,99.5738159 577.703077,103.093065 576.999217,106.064921 C576.295356,109.036776 575.904329,111.07012 575.826122,112.165014 C574.496608,116.153557 573.421281,119.516395 572.600111,122.25363 C571.77894,124.990865 570.996885,127.591199 570.253921,130.054711 C569.510957,132.518223 568.748453,135.059903 567.966386,137.679828 C567.184319,140.299753 566.167647,143.408423 564.916339,147.005932 C564.759926,147.944413 564.38845,148.902431 563.801899,149.880015 C563.215349,150.857599 562.648359,151.737411 562.100912,152.519478 C561.318845,152.363065 560.634546,152.519476 560.047996,152.988716 C559.461445,153.457956 558.933558,154.005395 558.464318,154.631049 C556.274529,154.318222 554.123877,154.279119 552.012296,154.513739 C549.900714,154.74836 547.945576,154.982976 546.146821,155.217596 C545.833994,155.217596 545.697135,155.393559 545.736238,155.745489 C545.775341,156.097419 545.677584,156.312485 545.442964,156.390691 C543.096763,155.608624 540.711494,155.315353 538.287085,155.51087 C535.862677,155.706387 533.399203,156.077863 530.896588,156.62531 C528.393973,157.172757 525.81319,157.77885 523.154161,158.443607 C520.495133,159.108364 517.836145,159.479841 515.177116,159.558047 C514.160429,158.854187 513.339271,157.974375 512.713617,156.918584 C512.087963,155.862793 511.560076,154.728813 511.129939,153.516609 C510.699802,152.304405 510.347877,151.053116 510.074153,149.762705 C509.80043,148.472294 509.507159,147.240557 509.194332,146.067456 C509.194332,144.972562 509.428949,144.190507 509.898189,143.721267 C510.36743,143.252026 510.836663,142.74369 511.305903,142.196243 C513.104658,142.118036 514.727423,141.981177 516.174247,141.78566 C517.621071,141.590143 519.00922,141.394629 520.338734,141.199112 C521.668248,141.003596 523.017294,140.808082 524.385911,140.612565 C525.754529,140.417048 527.259985,140.319291 528.902326,140.319291 C529.371567,140.006464 530.329585,139.752296 531.776409,139.55678 C533.223233,139.361263 534.885101,139.1853 536.762062,139.028887 C538.639023,138.872474 540.633265,138.755165 542.744846,138.676958 C544.856427,138.598752 546.850669,138.559649 548.72763,138.559649 C549.666111,135.274967 550.682783,132.048988 551.777677,128.881616 C552.872571,125.714244 553.85014,122.566471 554.710414,119.438202 C555.648895,115.606073 556.646015,112.067272 557.701806,108.821694 C558.757597,105.576115 559.774269,102.40879 560.751853,99.319625 C561.729437,96.2304597 562.6288,93.1608921 563.449971,90.1108301 C564.271141,87.0607682 564.916337,83.8543409 565.385577,80.491452 C566.167645,77.6760102 566.910597,75.1147787 567.614458,72.8076805 C568.318318,70.5005824 568.983065,68.1935188 569.608719,65.8864207 C570.234373,63.5793225 570.840466,61.0962965 571.427016,58.4372682 C572.013566,55.7782398 572.619659,52.6891208 573.245313,49.1698185 C570.273458,48.8569917 567.458058,48.720132 564.79903,48.7592353 C562.140002,48.7983387 560.028452,48.9351984 558.464318,49.1698185 C554.710395,49.7954723 551.81679,50.3624625 549.783415,50.8708061 C547.750041,51.3791498 546.342341,51.8288317 545.560274,52.2198653 C544.23076,52.1416585 543.194536,51.8483877 542.451572,51.3400441 C541.708609,50.8317004 541.102516,50.1865047 540.633275,49.4044375 C540.164035,48.6223704 539.753456,47.7621094 539.401526,46.8236288 C539.049595,45.8851482 538.639016,44.9075789 538.169776,43.8908915 C538.404396,43.1870311 538.46305,42.1899104 538.34574,40.8994996 C538.22843,39.6090888 537.856954,38.6510708 537.2313,38.0254171 C537.70054,37.8690037 538.072017,37.3411163 538.34574,36.441739 C538.619464,35.5423618 538.639015,34.897166 538.404395,34.5061324 C539.577496,34.1150989 540.789682,33.8609308 542.040989,33.7436208 C543.292297,33.6263107 544.543585,33.5090024 545.794893,33.3916923 C547.0462,33.2743822 548.238835,33.1179711 549.372832,32.9224543 C550.50683,32.7269376 551.50395,32.3554612 552.364224,31.8080142 C555.80532,31.6516008 559.383223,31.4560869 563.098042,31.2214668 C566.812861,30.9868466 570.31256,30.7913327 573.597242,30.6349193 C574.770342,31.0259529 576.138939,31.2410181 577.703074,31.2801215 C579.267208,31.3192249 580.831319,31.4560846 582.395453,31.6907047 C583.959588,31.9253249 585.367287,32.3945581 586.618595,33.0984186 C587.869902,33.802279 588.730163,35.0926705 589.199404,36.9696317 L589.199404,36.9696317 Z" id="[unblank]-copy"></path>
        </g>
    </g>
</svg>